<?xml version="1.0" standalone="no"?>
<!DOCTYPE svg PUBLIC "-//W3C//DTD SVG 20010904//EN"
 "http://www.w3.org/TR/2001/REC-SVG-20010904/DTD/svg10.dtd">
<svg version="1.0" xmlns="http://www.w3.org/2000/svg"
 width="500.000000pt" height="500.000000pt" viewBox="0 0 500.000000 500.000000"
 preserveAspectRatio="xMidYMid meet">

<g transform="translate(0.000000,500.000000) scale(0.100000,-0.100000)"
fill="#000000" stroke="none">
<path d="M1139 3571 c-86 -28 -157 -71 -209 -128 -69 -75 -82 -119 -88 -295
l-4 -148 191 0 191 0 0 180 0 180 -45 0 c-28 0 -45 4 -45 12 0 6 20 31 45 55
44 41 45 45 45 103 0 68 1 67 -81 41z"/>
<path d="M1650 3571 c-78 -25 -128 -53 -182 -100 -85 -75 -118 -180 -118 -373
l0 -98 190 0 190 0 0 180 0 180 -45 0 -46 0 16 31 c9 17 30 38 46 47 27 16 29
20 29 85 0 76 2 75 -80 48z"/>
<path d="M2001 3206 c-69 -38 -67 -162 4 -194 20 -9 279 -12 1056 -12 l1031 0
34 34 c28 28 34 42 34 76 0 34 -6 48 -34 76 l-34 34 -1033 0 c-839 -1 -1039
-3 -1058 -14z"/>
<path d="M904 2580 c-74 -30 -86 -139 -20 -192 20 -16 120 -18 1617 -18 l1596
0 26 24 c48 44 48 123 1 167 l-26 24 -1586 2 c-873 1 -1597 -2 -1608 -7z"/>
<path d="M904 1990 c-74 -30 -86 -139 -20 -192 20 -16 91 -18 1064 -18 l1044
0 29 29 c41 42 41 107 0 153 l-29 33 -1034 2 c-568 1 -1043 -2 -1054 -7z"/>
<path d="M3270 1820 l0 -180 45 0 c28 0 45 -4 45 -12 0 -6 -20 -31 -45 -55
-44 -41 -45 -45 -45 -103 0 -71 2 -71 100 -37 209 74 280 192 280 465 l0 102
-190 0 -190 0 0 -180z"/>
<path d="M3780 1820 l0 -180 45 0 c29 0 45 -4 45 -12 -1 -18 -30 -52 -62 -73
-26 -16 -28 -22 -28 -81 0 -74 3 -76 91 -45 132 45 203 102 251 199 32 65 33
70 37 219 l3 153 -191 0 -191 0 0 -180z"/>
</g>
</svg>